<?xml version="1.0" encoding="UTF-8"?>
<svg width="130px" height="36px" viewBox="0 0 140 51" version="1.1" xmlns="http://www.w3.org/2000/svg" xmlns:xlink="http://www.w3.org/1999/xlink">
    <title>7E8546C7-609E-4E6B-BC57-6E5232970544</title>
    <g id="REDISEÑO" stroke="none" stroke-width="1" fill="none" fill-rule="evenodd">
        <g id="logo-wobiz" transform="translate(-100.000000, -27.000000)" fill="#163A48">
            <g id="Imported-Layers" transform="translate(100.000000, 28.000000)">
                <path d="M17.5043911,9.58717919 C17.174454,9.18781503 16.8384657,8.84415414 16.5198749,8.54363969 C16.057755,8.11028709 15.6285863,7.76794798 15.2672582,7.49901445 C14.9055992,7.23055299 14.6112135,7.03592197 14.4082589,6.90719075 C14.2052571,6.77864836 14.0934029,6.71591137 14.0934029,6.71591137 L14.0778019,6.73932563 C14.0778019,6.73932563 14.1793028,6.8164605 14.3612669,6.97091908 C14.5430892,7.12551927 14.8055166,7.35730154 15.1215545,7.66872062 C15.437167,7.9802341 15.8071466,8.37157322 16.1909306,8.84811946 C16.5730127,9.32457129 16.9716886,9.88774085 17.3077242,10.5396108 C17.4753638,10.8651917 17.6256059,11.2130539 17.743086,11.5785713 C17.8604243,11.9439942 17.9438186,12.3274971 17.9748315,12.7177033 C18.006128,13.1079094 17.9841448,13.5040164 17.9001359,13.8908237 C17.8164579,14.2779143 17.6708488,14.6552331 17.4694543,15.0137168 C17.3692772,15.1931946 17.2542554,15.3676214 17.128313,15.5373748 C17.0645853,15.621921 16.9992031,15.7057592 16.9296605,15.7876618 C16.895622,15.8290145 16.8598816,15.8694701 16.8242357,15.9100674 L16.8109513,15.9252206 L16.8041909,15.9328208 C16.7888735,15.9528834 16.7955394,15.9433006 16.7900554,15.9499566 L16.7588535,15.9841339 L16.6964496,16.0526301 C16.6132443,16.1437852 16.5297082,16.2353179 16.4459357,16.3271811 L16.383059,16.3961493 L16.3188114,16.4711599 L16.189796,16.6218892 C16.1045579,16.7227216 16.0152069,16.8241204 15.932569,16.9258497 C15.8499311,17.027815 15.7671986,17.1300164 15.6841825,17.2324538 C15.5999845,17.334183 15.5202777,17.4397832 15.4395781,17.5454306 C15.3594458,17.6512197 15.2770443,17.756159 15.1980466,17.8639306 C15.042415,18.0812206 14.8818668,18.2972832 14.7331375,18.5228343 C14.6583473,18.6353738 14.5793024,18.7456946 14.5076324,18.8610193 L14.2887933,19.2057187 C14.2159414,19.3211378 14.1481954,19.4398141 14.0775182,19.5571686 L13.9725662,19.7340501 L13.8723417,19.9139056 C13.6011684,20.3922457 13.3547202,20.8884297 13.1286952,21.3951879 C13.0134843,21.6478353 12.9106124,21.9057697 12.8067004,22.1637042 C12.7579592,22.2940405 12.7093125,22.4241879 12.6606658,22.5541464 C12.6123501,22.6844827 12.5698965,22.8166599 12.5244646,22.9480347 C12.3489299,23.4749027 12.1986878,24.0093237 12.0755346,24.546105 C11.9524287,25.0829807 11.859532,25.6223112 11.7910295,26.1579595 C11.6546392,27.2292563 11.6240045,28.2860607 11.6810663,29.2857929 C11.7306585,30.1793112 11.8455384,31.0271811 11.9995153,31.8115588 C10.6317824,32.6743931 9.72319091,34.1972168 9.72319091,35.9320906 C9.72319091,38.6221811 11.9071859,40.8028699 14.601191,40.8028699 C17.2951489,40.8028699 19.4790493,38.6221811 19.4790493,35.9320906 C19.4790493,34.2576879 18.6328145,32.7807958 17.3441738,31.9041301 C17.1346479,31.53342 16.9220964,31.1190443 16.7199928,30.6631744 C16.4553435,30.0632784 16.2093681,29.3920067 16.0129849,28.6597919 C15.8151834,27.9277659 15.6728363,27.1343247 15.6062249,26.2973593 C15.5733683,25.8789711 15.5577673,25.4495366 15.5667024,25.0125491 C15.5758739,24.5756089 15.6065086,24.130974 15.6591264,23.6817129 C15.6739237,23.5696927 15.6853644,23.4564451 15.7027146,23.3439528 C15.7201593,23.2310829 15.7376513,23.1181185 15.755096,23.0048709 C15.7963677,22.7793671 15.8359847,22.5513613 15.8880353,22.3249133 C15.9874088,21.8708844 16.1066853,21.4150145 16.2526727,20.9639123 L16.3058578,20.7940173 L16.3642433,20.6256329 C16.403813,20.5134711 16.440499,20.3998459 16.4825743,20.2882033 L16.6098405,19.9530867 C16.6508285,19.8405472 16.7000425,19.7314538 16.744718,19.6201888 C16.83336,19.3971869 16.9354282,19.1800385 17.0327215,18.9601994 C17.0826919,18.8510116 17.1364917,18.7437119 17.1882113,18.6352322 C17.2404036,18.5270356 17.2918396,18.4183198 17.348334,18.3125308 C17.4036466,18.2057505 17.4588646,18.0991118 17.5138935,17.9928035 C17.5691115,17.886448 17.6267406,17.7866069 17.6829514,17.6830366 L17.810123,17.4517736 L17.8577296,17.3718064 C17.9213627,17.2650732 17.9848066,17.1586233 18.0479669,17.0525511 L18.0953372,16.9730087 L18.1190696,16.9333083 L18.1397291,16.8996031 C18.1775969,16.8420588 18.2151811,16.7846089 18.2512051,16.7259316 C18.3242461,16.6095684 18.3930322,16.4901368 18.4591236,16.3699027 C18.5901718,16.1282543 18.707321,15.8798083 18.8054653,15.6247534 C19.0030777,15.1158237 19.1254272,14.5823468 19.1619713,14.0581696 C19.1997446,13.5336146 19.1528471,13.0215694 19.0460986,12.5478083 C18.9395392,12.0731975 18.7755398,11.6361628 18.5832223,11.2387341 C18.4141644,10.8898805 18.2237852,10.5703892 18.0239509,10.2768613 C17.5043911,9.58717919 17.8577296,10.0352847 17.5043911,9.58717919 Z" id="Fill-1"></path>
                <path d="M12.3186087,20.6328495 C13.651942,19.1404653 14.3186087,17.4737986 14.3186087,15.6328495 C14.3186087,13.7919003 13.651942,12.1252336 12.3186087,10.6328495 C10.9852753,12.1252336 10.3186087,13.7919003 10.3186087,15.6328495 C10.3186087,17.4737986 10.9852753,19.1404653 12.3186087,20.6328495 Z" id="Oval" stroke="#163A48" stroke-linejoin="round" transform="translate(12.318609, 15.632849) rotate(-291.000000) translate(-12.318609, -15.632849) "></path>
                <path d="M20.997031,10.6772924 C22.3303644,9.18490828 22.997031,7.51824161 22.997031,5.67729245 C22.997031,3.83634328 22.3303644,2.16967661 20.997031,0.677292447 C19.6636977,2.16967661 18.997031,3.83634328 18.997031,5.67729245 C18.997031,7.51824161 19.6636977,9.18490828 20.997031,10.6772924 Z" id="Oval-Copy-8" stroke="#163A48" stroke-linejoin="round" transform="translate(20.997031, 5.677292) rotate(-319.000000) translate(-20.997031, -5.677292) "></path>
                <path d="M22.4739642,35.9320906 C22.4739642,40.2479615 18.9702211,43.746552 14.647994,43.746552 C10.3258614,43.746552 6.82211827,40.2479615 6.82211827,35.9320906 C6.82211827,33.3864345 8.28652861,31.3429713 9.92828388,29.6986936 C10.1567604,29.4698661 10.2695412,26.5914652 10.145255,25.2831849 C10.1069647,24.880128 9.49977048,24.7462186 9.27402432,24.8029445 C3.86162636,26.1629811 0.0267580398,29.7722742 0.0267580398,35.9320906 C0.0267580398,43.9695067 7.31399172,49.9883401 14.601191,49.9883401 C21.8883903,49.9883401 29.1755767,43.9695067 29.1755767,35.9320906 C29.1755767,29.1395718 24.4931901,25.5597774 18.2106384,24.4669356 C18.0259482,24.434809 17.5236522,24.3250683 17.3231437,24.6943953 C16.9460975,25.3888962 17.5963878,27.3892915 18.6129034,29.0201302 C18.773768,29.278212 22.4739642,33.1105308 22.4739642,35.9320906 Z" id="Fill-3"></path>
                <path d="M54.7119856,28.0433972 C54.5393375,27.5148419 53.9543906,27.0863632 53.392822,27.0863632 L51.2478493,27.0863632 C50.6919435,27.0863632 50.1024759,27.5113661 49.928701,28.0433972 L46.6534983,38.0707897 C46.4808587,38.599345 46.2230377,38.6028208 46.0754861,38.0707897 L43.2945233,28.0433972 C43.1479356,27.5148419 42.5808554,27.0863632 42.022688,27.0863632 L39.1783187,27.0863632 C38.6224912,27.0863632 38.3002798,27.5075472 38.4627255,28.0405097 L43.2902722,43.8790442 C43.4508885,44.4060048 44.025198,44.8331908 44.5817746,44.8331908 L47.5847808,44.8331908 C48.1374416,44.8331908 48.7190424,44.402956 48.8799741,43.8846295 L52.0442136,33.6932915 C52.2068683,33.1694156 52.4723083,33.174965 52.633242,33.6932915 L55.7975214,43.8846295 C55.9601781,44.4085054 56.5361459,44.8331908 57.0927278,44.8331908 L60.0957624,44.8331908 C60.6484284,44.8331908 61.2248263,44.4120068 61.3872692,43.8790442 L66.2147315,28.0405097 C66.375345,27.5135492 66.0539063,27.0863632 65.5151782,27.0863632 L62.6019384,27.0863632 C62.0549723,27.0863632 61.4937065,27.5113661 61.3461633,28.0433972 L58.5653593,38.0707897 C58.4187799,38.599345 58.1611304,38.6028208 57.987347,38.0707897 L54.7119856,28.0433972 Z" id="Fill-4" stroke="#163A48" stroke-linecap="round" stroke-linejoin="round"></path>
                <path d="M78.0656604,26.6454576 C72.2150102,26.6454576 68.6824289,30.9076079 68.6824289,35.9414374 C68.6824289,40.9752197 72.2150102,45.2740963 78.0656604,45.2740963 C83.9532801,45.2740963 87.4858614,40.9752197 87.4858614,35.9414374 C87.4858614,30.9076079 83.9532801,26.6454576 78.0656604,26.6454576 L78.0656604,26.6454576 Z M78.0656604,41.1222197 C75.1587728,41.1222197 73.5396278,38.7338709 73.5396278,35.9414374 C73.5396278,33.185683 75.1587728,30.7974287 78.0656604,30.7974287 C81.0095175,30.7974287 82.6285207,33.185683 82.6285207,35.9414374 C82.6285207,38.7338709 81.0095175,41.1222197 78.0656604,41.1222197 L78.0656604,41.1222197 Z" id="Fill-5" stroke="#163A48" stroke-linecap="round" stroke-linejoin="round"></path>
                <path d="M96.6544858,27.756738 L96.6544858,21.3278698 C96.6544858,20.7743784 96.2063905,20.325685 95.6633999,20.325685 L92.9722754,20.325685 C92.4249137,20.325685 91.9811894,20.7719793 91.9811894,21.3167618 L91.9811894,43.842114 C91.9811894,44.3894706 92.4292847,44.8331908 92.9722754,44.8331908 L95.6633999,44.8331908 C96.2107615,44.8331908 96.6544858,44.3843101 96.6544858,44.1545549 L96.6544858,44.1545549 C97.9810417,44.8659518 99.5626498,45.2740963 101.364515,45.2740963 C107.251993,45.2740963 110.784527,40.9752197 110.784527,35.9414374 C110.784527,30.9076079 107.251993,26.6454576 101.364515,26.6454576 C99.5626498,26.6454576 97.9810417,27.0502033 96.6544858,27.756738 Z M96.8384828,35.9414374 C96.8384828,33.185683 98.457486,30.7974287 101.364515,30.7974287 C104.308231,30.7974287 105.927329,33.185683 105.927329,35.9414374 C105.927329,38.7338709 104.308231,41.1222197 101.364515,41.1222197 C98.457486,41.1222197 96.8384828,38.7338709 96.8384828,35.9414374 Z" id="Fill-6" stroke="#163A48" stroke-linecap="round" stroke-linejoin="round"></path>
                <path d="M116.862267,19.627553 C115.353605,19.627553 114.102549,20.8400906 114.102549,22.3832601 C114.102549,23.9265241 115.353605,25.1756936 116.862267,25.1756936 C118.407757,25.1756936 119.658813,23.9265241 119.658813,22.3832601 C119.658813,20.8400906 118.407757,19.627553 116.862267,19.627553" id="Fill-7" stroke="#163A48" stroke-linecap="round" stroke-linejoin="round"></path>
                <path d="M114.544057,28.0913579 C114.544057,27.5363146 114.992143,27.0863632 115.535122,27.0863632 L118.226192,27.0863632 C118.773543,27.0863632 119.217258,27.5250513 119.217258,28.0913579 L119.217258,43.8281961 C119.217258,44.3832393 118.769172,44.8331908 118.226192,44.8331908 L115.535122,44.8331908 C114.987772,44.8331908 114.544057,44.3945027 114.544057,43.8281961 L114.544057,28.0913579 Z" id="Fill-8" stroke="#163A48" stroke-linecap="round" stroke-linejoin="round"></path>
                <path d="M137.847479,31.2145277 C138.190283,30.7812578 138.46818,29.9790823 138.46818,29.4268149 L138.46818,28.0895714 C138.46818,27.5355148 138.021811,27.0863632 137.467895,27.0863632 L125.080866,27.0863632 C124.528423,27.0863632 124.08058,27.538414 124.08058,28.0945248 L124.08058,30.1566727 C124.08058,30.713465 124.534848,31.1648343 125.08032,31.1648343 L131.10258,31.1648343 C131.654721,31.1648343 131.826193,31.5151769 131.486187,31.9465688 L124.696713,40.5608908 C124.356432,40.9926308 124.08058,41.7989557 124.08058,42.3335444 L124.08058,43.8422716 C124.08058,44.3895411 124.531518,44.8331908 125.07962,44.8331908 L137.616404,44.8331908 C138.168158,44.8331908 138.615444,44.38114 138.615444,43.8250291 L138.615444,41.7628813 C138.615444,41.206089 138.16833,40.7547197 137.612319,40.7547197 L131.302396,40.7547197 C130.748386,40.7547197 130.571066,40.4111985 130.919972,39.9702151 L137.847479,31.2145277 Z" id="Fill-9" stroke="#163A48" stroke-linecap="round" stroke-linejoin="round"></path>
            </g>
        </g>
    </g>
</svg>